<svg width="16" height="18" viewBox="0 0 16 18" fill="none" xmlns="http://www.w3.org/2000/svg">
<path fill-rule="evenodd" clip-rule="evenodd" d="M2.85133 6.64008C4.42607 6.64008 5.70265 5.35066 5.70265 3.76007C5.70265 2.16949 4.42607 0.880066 2.85133 0.880066C1.27658 0.880066 0 2.16949 0 3.76007C0 5.35066 1.27658 6.64008 2.85133 6.64008Z" fill="#315EFB"/>
<path fill-rule="evenodd" clip-rule="evenodd" d="M12.356 16.2399C13.9307 16.2399 15.2073 14.9505 15.2073 13.3599C15.2073 11.7693 13.9307 10.4799 12.356 10.4799C10.7812 10.4799 9.50464 11.7693 9.50464 13.3599C9.50464 14.9505 10.7812 16.2399 12.356 16.2399Z" fill="#315EFB"/>
<path fill-rule="evenodd" clip-rule="evenodd" d="M12.2831 1.84034C10.668 1.84034 9.35864 3.16283 9.35864 4.79419C9.35864 6.42556 10.668 7.74805 12.2831 7.74805C13.8982 7.74805 15.2075 6.42556 15.2075 4.79419C15.2075 3.16283 13.8982 1.84034 12.2831 1.84034Z" fill="#315EFB"/>
<path fill-rule="evenodd" clip-rule="evenodd" d="M2.92493 11.2925C1.3098 11.2925 0.000488758 12.615 0.000488758 14.2463C0.000488758 15.8777 1.3098 17.2002 2.92493 17.2002C4.54005 17.2002 5.84937 15.8777 5.84937 14.2463C5.84937 12.615 4.54005 11.2925 2.92493 11.2925Z" fill="#315EFB"/>
</svg>
